<mxfile host="app.diagrams.net" modified="2022-05-28T17:45:01.662Z" agent="5.0 (Macintosh; Intel Mac OS X 10_15_7) AppleWebKit/537.36 (KHTML, like Gecko) Chrome/101.0.4951.54 Safari/537.36" etag="V_3KCxqoR25ANpYcUYyw" version="18.1.3" type="github">
  <diagram id="C5RBs43oDa-KdzZeNtuy" name="Page-1">
    <mxGraphModel dx="1181" dy="647" grid="1" gridSize="10" guides="1" tooltips="1" connect="1" arrows="1" fold="1" page="1" pageScale="1" pageWidth="827" pageHeight="1169" math="0" shadow="0">
      <root>
        <mxCell id="WIyWlLk6GJQsqaUBKTNV-0" />
        <mxCell id="WIyWlLk6GJQsqaUBKTNV-1" parent="WIyWlLk6GJQsqaUBKTNV-0" />
        <mxCell id="Udfs2bS1xesIEVWHUaJf-4" value="&amp;lt;&amp;lt;&amp;lt;Application&amp;gt;&amp;gt;&amp;gt;&lt;br&gt;ProjectTruthful API" style="html=1;" vertex="1" parent="WIyWlLk6GJQsqaUBKTNV-1">
          <mxGeometry x="359" y="560" width="110" height="50" as="geometry" />
        </mxCell>
        <mxCell id="Udfs2bS1xesIEVWHUaJf-5" value="&lt;&lt;&lt;Ressource&gt;&gt;&gt;&#xa;Authentification" style="swimlane;fontStyle=0;childLayout=stackLayout;horizontal=1;startSize=30;fillColor=none;horizontalStack=0;resizeParent=1;resizeParentMax=0;resizeLast=0;collapsible=1;marginBottom=0;" vertex="1" parent="WIyWlLk6GJQsqaUBKTNV-1">
          <mxGeometry x="240" y="670" width="140" height="56" as="geometry" />
        </mxCell>
        <mxCell id="Udfs2bS1xesIEVWHUaJf-26" value="" style="endArrow=classic;html=1;rounded=0;entryX=0.5;entryY=0;entryDx=0;entryDy=0;" edge="1" parent="Udfs2bS1xesIEVWHUaJf-5" target="Udfs2bS1xesIEVWHUaJf-22">
          <mxGeometry width="50" height="50" relative="1" as="geometry">
            <mxPoint x="70" y="56" as="sourcePoint" />
            <mxPoint x="120" y="6" as="targetPoint" />
          </mxGeometry>
        </mxCell>
        <mxCell id="Udfs2bS1xesIEVWHUaJf-20" value="" style="endArrow=classic;html=1;rounded=0;entryX=0.5;entryY=0;entryDx=0;entryDy=0;" edge="1" parent="Udfs2bS1xesIEVWHUaJf-5" target="Udfs2bS1xesIEVWHUaJf-11">
          <mxGeometry width="50" height="50" relative="1" as="geometry">
            <mxPoint x="69" y="56" as="sourcePoint" />
            <mxPoint x="119" y="6" as="targetPoint" />
          </mxGeometry>
        </mxCell>
        <mxCell id="Udfs2bS1xesIEVWHUaJf-7" value="+ GET(): Void" style="text;strokeColor=none;fillColor=none;align=left;verticalAlign=top;spacingLeft=4;spacingRight=4;overflow=hidden;rotatable=0;points=[[0,0.5],[1,0.5]];portConstraint=eastwest;" vertex="1" parent="Udfs2bS1xesIEVWHUaJf-5">
          <mxGeometry y="30" width="140" height="26" as="geometry" />
        </mxCell>
        <mxCell id="Udfs2bS1xesIEVWHUaJf-10" value="" style="endArrow=classic;html=1;rounded=0;entryX=0.5;entryY=0;entryDx=0;entryDy=0;exitX=0.5;exitY=1;exitDx=0;exitDy=0;" edge="1" parent="WIyWlLk6GJQsqaUBKTNV-1" source="Udfs2bS1xesIEVWHUaJf-4" target="Udfs2bS1xesIEVWHUaJf-5">
          <mxGeometry width="50" height="50" relative="1" as="geometry">
            <mxPoint x="270" y="660" as="sourcePoint" />
            <mxPoint x="320" y="610" as="targetPoint" />
          </mxGeometry>
        </mxCell>
        <mxCell id="Udfs2bS1xesIEVWHUaJf-11" value="&lt;&lt;&lt;Ressource&gt;&gt;&gt;&#xa;Register" style="swimlane;fontStyle=0;childLayout=stackLayout;horizontal=1;startSize=30;fillColor=none;horizontalStack=0;resizeParent=1;resizeParentMax=0;resizeLast=0;collapsible=1;marginBottom=0;" vertex="1" parent="WIyWlLk6GJQsqaUBKTNV-1">
          <mxGeometry x="270" y="790" width="140" height="56" as="geometry" />
        </mxCell>
        <mxCell id="Udfs2bS1xesIEVWHUaJf-14" value="+ POST(RegisterInfos)" style="text;strokeColor=none;fillColor=none;align=left;verticalAlign=top;spacingLeft=4;spacingRight=4;overflow=hidden;rotatable=0;points=[[0,0.5],[1,0.5]];portConstraint=eastwest;" vertex="1" parent="Udfs2bS1xesIEVWHUaJf-11">
          <mxGeometry y="30" width="140" height="26" as="geometry" />
        </mxCell>
        <mxCell id="Udfs2bS1xesIEVWHUaJf-15" value="&lt;&lt;&lt;Representation&gt;&gt;&gt;&#xa;RegisterInfos" style="swimlane;fontStyle=0;childLayout=stackLayout;horizontal=1;startSize=30;fillColor=none;horizontalStack=0;resizeParent=1;resizeParentMax=0;resizeLast=0;collapsible=1;marginBottom=0;" vertex="1" parent="WIyWlLk6GJQsqaUBKTNV-1">
          <mxGeometry x="270" y="890" width="140" height="134" as="geometry" />
        </mxCell>
        <mxCell id="Udfs2bS1xesIEVWHUaJf-16" value="+ username" style="text;strokeColor=none;fillColor=none;align=left;verticalAlign=top;spacingLeft=4;spacingRight=4;overflow=hidden;rotatable=0;points=[[0,0.5],[1,0.5]];portConstraint=eastwest;" vertex="1" parent="Udfs2bS1xesIEVWHUaJf-15">
          <mxGeometry y="30" width="140" height="26" as="geometry" />
        </mxCell>
        <mxCell id="Udfs2bS1xesIEVWHUaJf-17" value="+ emailAddress" style="text;strokeColor=none;fillColor=none;align=left;verticalAlign=top;spacingLeft=4;spacingRight=4;overflow=hidden;rotatable=0;points=[[0,0.5],[1,0.5]];portConstraint=eastwest;" vertex="1" parent="Udfs2bS1xesIEVWHUaJf-15">
          <mxGeometry y="56" width="140" height="26" as="geometry" />
        </mxCell>
        <mxCell id="Udfs2bS1xesIEVWHUaJf-18" value="+ password" style="text;strokeColor=none;fillColor=none;align=left;verticalAlign=top;spacingLeft=4;spacingRight=4;overflow=hidden;rotatable=0;points=[[0,0.5],[1,0.5]];portConstraint=eastwest;" vertex="1" parent="Udfs2bS1xesIEVWHUaJf-15">
          <mxGeometry y="82" width="140" height="26" as="geometry" />
        </mxCell>
        <mxCell id="Udfs2bS1xesIEVWHUaJf-19" value="+ birthdate" style="text;strokeColor=none;fillColor=none;align=left;verticalAlign=top;spacingLeft=4;spacingRight=4;overflow=hidden;rotatable=0;points=[[0,0.5],[1,0.5]];portConstraint=eastwest;" vertex="1" parent="Udfs2bS1xesIEVWHUaJf-15">
          <mxGeometry y="108" width="140" height="26" as="geometry" />
        </mxCell>
        <mxCell id="Udfs2bS1xesIEVWHUaJf-21" value="" style="endArrow=classic;html=1;rounded=0;entryX=0.5;entryY=0;entryDx=0;entryDy=0;" edge="1" parent="WIyWlLk6GJQsqaUBKTNV-1" target="Udfs2bS1xesIEVWHUaJf-15">
          <mxGeometry width="50" height="50" relative="1" as="geometry">
            <mxPoint x="340" y="846" as="sourcePoint" />
            <mxPoint x="360" y="890" as="targetPoint" />
          </mxGeometry>
        </mxCell>
        <mxCell id="Udfs2bS1xesIEVWHUaJf-22" value="&lt;&lt;&lt;Ressource&gt;&gt;&gt;&#xa;Login" style="swimlane;fontStyle=0;childLayout=stackLayout;horizontal=1;startSize=40;fillColor=none;horizontalStack=0;resizeParent=1;resizeParentMax=0;resizeLast=0;collapsible=1;marginBottom=0;" vertex="1" parent="WIyWlLk6GJQsqaUBKTNV-1">
          <mxGeometry x="50" y="790" width="140" height="66" as="geometry" />
        </mxCell>
        <mxCell id="Udfs2bS1xesIEVWHUaJf-32" value="" style="endArrow=classic;html=1;rounded=0;entryX=0.5;entryY=0;entryDx=0;entryDy=0;" edge="1" parent="Udfs2bS1xesIEVWHUaJf-22" target="Udfs2bS1xesIEVWHUaJf-27">
          <mxGeometry width="50" height="50" relative="1" as="geometry">
            <mxPoint x="70" y="68" as="sourcePoint" />
            <mxPoint x="120" y="18" as="targetPoint" />
          </mxGeometry>
        </mxCell>
        <mxCell id="Udfs2bS1xesIEVWHUaJf-23" value="+ POST(LoginInfos)" style="text;strokeColor=none;fillColor=none;align=left;verticalAlign=top;spacingLeft=4;spacingRight=4;overflow=hidden;rotatable=0;points=[[0,0.5],[1,0.5]];portConstraint=eastwest;" vertex="1" parent="Udfs2bS1xesIEVWHUaJf-22">
          <mxGeometry y="40" width="140" height="26" as="geometry" />
        </mxCell>
        <mxCell id="Udfs2bS1xesIEVWHUaJf-27" value="&lt;&lt;&lt;Representation&gt;&gt;&gt;&#xa;LoginInfos" style="swimlane;fontStyle=0;childLayout=stackLayout;horizontal=1;startSize=30;fillColor=none;horizontalStack=0;resizeParent=1;resizeParentMax=0;resizeLast=0;collapsible=1;marginBottom=0;" vertex="1" parent="WIyWlLk6GJQsqaUBKTNV-1">
          <mxGeometry x="50" y="890" width="140" height="82" as="geometry" />
        </mxCell>
        <mxCell id="Udfs2bS1xesIEVWHUaJf-28" value="+ username" style="text;strokeColor=none;fillColor=none;align=left;verticalAlign=top;spacingLeft=4;spacingRight=4;overflow=hidden;rotatable=0;points=[[0,0.5],[1,0.5]];portConstraint=eastwest;" vertex="1" parent="Udfs2bS1xesIEVWHUaJf-27">
          <mxGeometry y="30" width="140" height="26" as="geometry" />
        </mxCell>
        <mxCell id="Udfs2bS1xesIEVWHUaJf-30" value="+ password" style="text;strokeColor=none;fillColor=none;align=left;verticalAlign=top;spacingLeft=4;spacingRight=4;overflow=hidden;rotatable=0;points=[[0,0.5],[1,0.5]];portConstraint=eastwest;" vertex="1" parent="Udfs2bS1xesIEVWHUaJf-27">
          <mxGeometry y="56" width="140" height="26" as="geometry" />
        </mxCell>
      </root>
    </mxGraphModel>
  </diagram>
</mxfile>
